HIERARCHY
ROOT Hips
{
	OFFSET 0.000000 0.000000 0.000000
	CHANNELS 6 Xposition Yposition Zposition Zrotation Yrotation Xrotation 
	JOINT LHipJoint
	{
		OFFSET 0.000000 0.000000 0.000000
		CHANNELS 3 Zrotation Yrotation Xrotation
		JOINT LeftUpLeg
		{
			OFFSET 1.363060 -1.794630 0.839290
			CHANNELS 3 Zrotation Yrotation Xrotation
			JOINT LeftLeg
			{
				OFFSET 2.448110 -6.726130 0.000000
				CHANNELS 3 Zrotation Yrotation Xrotation
				JOINT LeftFoot
				{
					OFFSET 2.562200 -7.039590 0.000000
					CHANNELS 3 Zrotation Yrotation Xrotation
					JOINT LeftToeBase
					{
						OFFSET 0.157640 -0.433110 2.322550
						CHANNELS 3 Zrotation Yrotation Xrotation
						End Site
						{
							OFFSET 0.000000 0.000000 0.000000
						}
					}
				}
			}
		}
	}
	JOINT RHipJoint
	{
		OFFSET 0.000000 0.000000 0.000000
		CHANNELS 3 Zrotation Yrotation Xrotation
		JOINT RightUpLeg
		{
			OFFSET -1.305520 -1.794630 0.839290
			CHANNELS 3 Zrotation Yrotation Xrotation
			JOINT RightLeg
			{
				OFFSET -2.542530 -6.985550 0.000000
				CHANNELS 3 Zrotation Yrotation Xrotation
				JOINT RightFoot
				{
					OFFSET -2.568260 -7.056230 0.000000
					CHANNELS 3 Zrotation Yrotation Xrotation
					JOINT RightToeBase
					{
						OFFSET -0.164730 -0.452590 2.363150
						CHANNELS 3 Zrotation Yrotation Xrotation
						End Site
						{
							OFFSET 0.000000 0.000000 0.000000
						}
					}
				}
			}
		}
	}
	JOINT LowerBack
	{
		OFFSET 0.000000 0.000000 0.000000
		CHANNELS 3 Zrotation Yrotation Xrotation
		JOINT Spine
		{
			OFFSET 0.028270 2.035590 -0.193380
			CHANNELS 3 Zrotation Yrotation Xrotation
			JOINT Spine1
			{
				OFFSET 0.056720 2.048850 -0.042750
				CHANNELS 3 Zrotation Yrotation Xrotation
				JOINT Neck
				{
					OFFSET 0.000000 0.000000 0.000000
					CHANNELS 3 Zrotation Yrotation Xrotation
					JOINT Neck1
					{
						OFFSET -0.054170 1.746240 0.172020
						CHANNELS 3 Zrotation Yrotation Xrotation
						JOINT Head
						{
							OFFSET 0.104070 1.761360 -0.123970
							CHANNELS 3 Zrotation Yrotation Xrotation
							End Site
							{
								OFFSET 0.000000 0.000000 0.000000
							}
						}
					}
				}
				JOINT LeftShoulder
				{
					OFFSET 0.000000 0.000000 0.000000
					CHANNELS 3 Zrotation Yrotation Xrotation
					JOINT LeftArm
					{
						OFFSET 3.362410 1.200890 -0.311210
						CHANNELS 3 Zrotation Yrotation Xrotation
						JOINT LeftForeArm
						{
							OFFSET 4.983000 -0.000000 -0.000000
							CHANNELS 3 Zrotation Yrotation Xrotation
							JOINT LeftHand
							{
								OFFSET 3.483560 -0.000000 -0.000000
								CHANNELS 3 Zrotation Yrotation Xrotation
								JOINT LeftFingerBase
								{
									OFFSET 0.000000 0.000000 0.000000
									CHANNELS 3 Zrotation Yrotation Xrotation
									JOINT LeftHandIndex1
									{
										OFFSET 0.715260 -0.000000 -0.000000
										CHANNELS 3 Zrotation Yrotation Xrotation
										End Site
										{
											OFFSET 0.000000 0.000000 0.000000
										}
									}
								}
								JOINT LThumb
								{
									OFFSET 0.000000 0.000000 0.000000
									CHANNELS 3 Zrotation Yrotation Xrotation
									End Site
									{
										OFFSET 0.000000 0.000000 0.000000
									}
								}
							}
						}
					}
				}
				JOINT RightShoulder
				{
					OFFSET 0.000000 0.000000 0.000000
					CHANNELS 3 Zrotation Yrotation Xrotation
					JOINT RightArm
					{
						OFFSET -3.136600 1.374050 -0.404650
						CHANNELS 3 Zrotation Yrotation Xrotation
						JOINT RightForeArm
						{
							OFFSET -5.241900 -0.000000 -0.000000
							CHANNELS 3 Zrotation Yrotation Xrotation
							JOINT RightHand
							{
								OFFSET -3.444170 -0.000000 -0.000000
								CHANNELS 3 Zrotation Yrotation Xrotation
								JOINT RightFingerBase
								{
									OFFSET 0.000000 0.000000 0.000000
									CHANNELS 3 Zrotation Yrotation Xrotation
									JOINT RightHandIndex1
									{
										OFFSET -0.622530 -0.000000 -0.000000
										CHANNELS 3 Zrotation Yrotation Xrotation
										End Site
										{
											OFFSET 0.000000 0.000000 0.000000
										}
									}
								}
								JOINT RThumb
								{
									OFFSET 0.000000 0.000000 0.000000
									CHANNELS 3 Zrotation Yrotation Xrotation
									End Site
									{
										OFFSET 0.000000 0.000000 0.000000
									}
								}
							}
						}
					}
				}
			}
		}
	}
}
MOTION
Frames: 9
Frame Time: 0.008333
2.189192 10.207149 -1.967856 -1.189800 -7.240092 12.175222 1.333207 0.163155 0.078271 -2.843409 0.007242 -94.336302 32.671585 17.334236 129.193331 1.730832 -24.051230 -22.457106 0.662600 -5.205900 -14.496900 2.817709 0.176606 1.965377 11.964149 -43.160073 -96.683939 -34.839536 -12.566445 139.808931 -1.994317 23.234541 -16.896913 -0.570400 4.837000 -13.444100 3.251656 8.276376 38.537740 7.094596 9.242360 27.250731 0.245156 4.685580 -5.201892 -0.156375 -6.074243 -6.103374 -8.306285 -7.606995 19.763403 -5.220900 -3.853400 8.999700 0.610182 5.361225 -2.451280 -74.122809 -3.616127 71.982897 108.032328 -61.292334 -74.068029 1.068405 -0.059828 29.501477 57.954419 18.537489 25.609700 -7.125000 0.000000 0.000000 34.264200 57.520900 11.393200 -0.605154 -6.457598 -2.877097 76.067403 48.729295 20.778497 -18.698551 34.918738 -4.155568 -0.107501 1.001203 0.240722 -50.012586 21.547808 -22.132600 7.125000 0.000000 0.000000 -13.119200 -1.149100 -13.206600 
2.192561 10.202790 -1.965676 -1.186801 -7.238089 12.123164 1.331742 0.161730 0.078367 -2.860541 -0.006283 -94.328907 32.688084 17.319241 129.261754 1.714309 -24.017360 -22.361678 0.616900 -5.026900 -13.985200 2.820216 0.180594 1.962158 11.915798 -43.334067 -96.668927 -34.846131 -12.558159 139.845370 -1.998539 23.289272 -16.929627 -0.569000 4.830800 -13.426700 3.263008 8.267226 38.606326 7.097071 9.238849 27.229556 0.229352 4.680773 -5.247261 -0.132119 -6.076723 -6.156456 -8.272038 -7.610195 19.792028 -5.216600 -3.850000 9.017400 0.609492 5.363024 -2.449572 -74.127336 -3.646248 71.975749 108.018100 -61.295386 -74.054945 1.068769 -0.058078 29.510263 57.924190 18.613011 25.672500 -7.125000 0.000000 0.000000 34.280100 57.609700 11.475100 -0.606087 -6.451614 -2.880682 76.163549 48.659624 20.785586 -18.720230 34.942335 -4.171492 -0.103550 0.999445 0.289718 -49.888840 21.508244 -22.014600 7.125000 0.000000 0.000000 -13.058500 -1.247000 -13.118900 
2.195236 10.202591 -1.962605 -1.210788 -7.274892 12.019201 1.330057 0.158513 0.076638 -2.851942 0.026798 -94.194880 32.700193 17.307857 129.308146 1.714080 -23.999452 -22.356696 0.614800 -5.018300 -13.960800 2.823178 0.182596 1.959965 11.840202 -43.421786 -96.473036 -34.843499 -12.561086 139.833617 -2.028245 23.248686 -17.112003 -0.600600 4.960900 -13.796900 3.257176 8.287829 38.684367 7.115807 9.257684 27.245497 0.231479 4.690142 -5.253541 -0.062437 -6.063965 -6.279918 -8.299215 -7.593234 19.828180 -5.244000 -3.841200 9.047600 0.609422 5.358750 -2.445846 -74.129387 -3.716137 71.959055 108.078714 -61.286322 -74.104474 1.068355 -0.056667 29.472735 57.863141 18.595240 25.598400 -7.125000 0.000000 0.000000 34.170200 57.563000 11.392500 -0.609113 -6.442810 -2.885693 76.313002 48.528723 20.835633 -18.855168 35.093695 -4.234625 -0.100616 0.990622 0.291354 -50.055096 21.736340 -22.360000 7.125000 0.000000 0.000000 -13.095100 -0.861200 -13.249300 
2.197118 10.196944 -1.960029 -1.226593 -7.338589 11.990421 1.329806 0.158295 0.075670 -2.830689 0.058849 -94.171084 32.726247 17.288580 129.396929 1.750181 -23.894957 -22.512296 0.668200 -5.227600 -14.558700 2.824987 0.182362 1.959063 11.793822 -43.424926 -96.419307 -34.851912 -12.553686 139.862362 -2.057297 23.164482 -17.282765 -0.654900 5.176100 -14.411500 3.217115 8.319257 38.639583 7.116231 9.276099 27.273697 0.258289 4.700388 -5.211845 0.014688 -6.041423 -6.383399 -8.365989 -7.562499 19.870017 -5.284100 -3.828900 9.076900 0.610183 5.359553 -2.446075 -74.120430 -3.754771 71.919540 108.143880 -61.275783 -74.157721 1.063943 -0.059201 29.484003 57.547182 18.338939 25.031500 -7.125000 0.000000 0.000000 33.478600 57.110800 10.747700 -0.609714 -6.446151 -2.878705 76.197484 48.543742 21.109916 -18.852532 35.076539 -4.230021 -0.113242 0.989863 -0.083601 -50.168777 21.730017 -22.430400 7.125000 0.000000 0.000000 -13.158500 -0.822500 -13.326100 
2.200883 10.183668 -1.959830 -1.214407 -7.352087 12.066878 1.330133 0.162718 0.077961 -2.805611 -0.010234 -94.368571 32.769106 17.258516 129.548399 1.790067 -23.728855 -22.666306 0.755500 -5.551300 -15.487900 2.825111 0.181388 1.958962 11.762577 -43.412241 -96.621457 -34.876079 -12.526532 139.968873 -2.043958 23.171197 -17.194486 -0.665700 5.217800 -14.530700 3.201072 8.311127 38.502491 7.091143 9.262450 27.271557 0.270825 4.693921 -5.176023 0.027066 -6.043873 -6.433287 -8.352343 -7.563134 19.901305 -5.284500 -3.827300 9.097300 0.610960 5.367949 -2.449597 -74.089470 -3.742445 71.932106 108.261798 -61.255697 -74.252541 1.053633 -0.057965 29.395423 56.631857 17.923645 23.804200 -7.125000 0.000000 0.000000 31.812300 56.239200 9.439200 -0.607056 -6.451321 -2.867520 75.982446 48.630743 21.375668 -18.754629 34.947899 -4.178339 -0.128061 0.994872 -0.582225 -50.171681 21.705712 -22.398400 7.125000 0.000000 0.000000 -13.164700 -0.864900 -13.322700 
2.207521 10.168410 -1.961019 -1.169971 -7.316369 12.161789 1.328710 0.166777 0.080934 -2.779156 -0.204059 -94.657380 32.807916 17.229264 129.700023 1.772978 -23.669309 -22.557507 0.760200 -5.568300 -15.537000 2.824070 0.182086 1.957111 11.723792 -43.480722 -96.940100 -34.899959 -12.496814 140.087916 -1.995375 23.310698 -16.900949 -0.639500 5.116300 -14.240500 3.219003 8.253038 38.324902 7.049321 9.206205 27.262516 0.270713 4.670118 -5.129214 0.026724 -6.043954 -6.480910 -8.353539 -7.554476 19.952620 -5.290500 -3.823000 9.125700 0.613474 5.363928 -2.447833 -74.064380 -3.731153 71.972535 108.442869 -61.224794 -74.401826 1.047870 -0.052965 29.175260 56.076176 17.694056 23.104700 -7.125000 0.000000 0.000000 30.860000 55.741700 8.730100 -0.601633 -6.441250 -2.876339 76.149457 48.599780 21.271510 -18.817216 35.037229 -4.222692 -0.116773 0.992028 -0.451867 -49.895242 21.653085 -22.166800 7.125000 0.000000 0.000000 -13.022300 -1.039700 -13.129500 
2.210989 10.163258 -1.961515 -1.149858 -7.339479 12.088183 1.327143 0.165172 0.080746 -2.781365 -0.235376 -94.619729 32.824010 17.215487 129.762737 1.773469 -23.626216 -22.547420 0.763800 -5.581200 -15.573900 2.824905 0.184257 1.953776 11.604882 -43.587188 -96.893855 -34.905051 -12.486656 140.125705 -1.978732 23.416904 -16.810799 -0.640900 5.121800 -14.256300 3.207141 8.234637 38.362029 7.035465 9.183083 27.263871 0.272487 4.657115 -5.138647 0.017439 -6.022939 -6.518694 -8.354270 -7.511091 20.027857 -5.293500 -3.802800 9.162700 0.615059 5.360259 -2.445097 -74.067460 -3.697974 71.965786 108.595738 -61.199293 -74.531226 1.048443 -0.055364 29.196560 56.196580 17.608411 23.097100 -7.125000 0.000000 0.000000 30.969700 55.665700 8.706300 -0.598806 -6.428384 -2.886766 76.368169 48.517655 21.224826 -18.930038 35.182938 -4.293943 -0.106412 0.985816 -0.343272 -49.642206 21.574232 -21.932600 7.125000 0.000000 0.000000 -12.897900 -1.231700 -12.952500 
2.208809 10.169500 -1.961614 -1.184419 -7.423900 11.837730 1.328252 0.159394 0.078119 -2.781721 0.007640 -94.233447 32.832426 17.204632 129.783860 1.811354 -23.679450 -22.767213 0.814400 -5.758900 -16.086300 2.827805 0.185923 1.950784 11.431860 -43.670965 -96.422947 -34.891822 -12.496902 140.079270 -2.001967 23.414306 -16.956272 -0.655700 5.179500 -14.421400 3.153678 8.289158 38.654173 7.082336 9.223761 27.271639 0.283670 4.668274 -5.227050 -0.041973 -6.015282 -6.500047 -8.278804 -7.490911 20.053245 -5.256800 -3.790400 9.173900 0.611746 5.367643 -2.444782 -74.135894 -3.687645 71.929705 108.651845 -61.192094 -74.578192 1.049324 -0.057682 29.335397 56.244962 17.635567 23.164900 -7.125000 0.000000 0.000000 31.055500 55.717600 8.774700 -0.601421 -6.422064 -2.885072 76.375192 48.461901 21.366849 -18.993220 35.255760 -4.334690 -0.108287 0.981812 -0.648860 -49.478260 21.557144 -21.812500 7.125000 0.000000 0.000000 -12.807400 -1.311400 -12.838100 
2.206233 10.172373 -1.961713 -1.206060 -7.480474 11.667258 1.329641 0.154083 0.075687 -2.770254 0.197600 -93.960821 32.841095 17.192761 129.811056 1.823100 -23.831314 -22.882489 0.819000 -5.774600 -16.131700 2.829713 0.185480 1.949181 11.341862 -43.715922 -96.128686 -34.885100 -12.504202 140.050837 -2.028616 23.325957 -17.105920 -0.682100 5.280700 -14.710800 3.074962 8.343662 38.829251 7.132853 9.254159 27.279379 0.323157 4.680236 -5.283345 -0.021547 -6.003148 -6.441778 -8.308963 -7.485586 20.004704 -5.263700 -3.790100 9.143300 0.607723 5.366655 -2.443299 -74.203570 -3.733722 71.903867 108.595578 -61.203861 -74.529977 1.051252 -0.053996 29.367011 56.237451 17.864574 23.422900 -7.125000 0.000000 0.000000 31.203200 56.021900 9.061700 -0.605847 -6.426866 -2.884375 76.357791 48.448750 21.559350 -19.002388 35.259791 -4.340452 -0.115529 0.980509 -0.981586 -49.476901 21.590252 -21.843600 7.125000 0.000000 0.000000 -12.796800 -1.266600 -12.837300 
